<?xml version="1.0" standalone="no"?>
<!DOCTYPE svg PUBLIC "-//W3C//DTD SVG 20010904//EN"
 "http://www.w3.org/TR/2001/REC-SVG-20010904/DTD/svg10.dtd">
<svg version="1.0" xmlns="http://www.w3.org/2000/svg"
 width="1792.000000pt" height="1792.000000pt" viewBox="0 0 1792.000000 1792.000000"
 preserveAspectRatio="xMidYMid meet">
<metadata>
Created by potrace 1.11, written by Peter Selinger 2001-2013
</metadata>
<g transform="translate(0.000000,1792.000000) scale(0.100000,-0.100000)"
fill="#000000" stroke="none">
<path d="M8608 17915 c-2 -2 -66 -6 -143 -9 -77 -4 -158 -8 -180 -11 -22 -2
-74 -7 -115 -10 -115 -9 -387 -41 -515 -60 -16 -2 -48 -7 -70 -10 -22 -3 -51
-8 -65 -10 -14 -2 -45 -7 -70 -11 -24 -3 -47 -7 -50 -9 -3 -2 -26 -6 -50 -10
-25 -3 -52 -8 -60 -10 -8 -2 -31 -7 -50 -10 -325 -54 -981 -236 -1350 -375
-47 -17 -96 -35 -110 -39 -24 -8 -256 -101 -315 -126 -16 -8 -59 -26 -95 -42
-36 -16 -90 -40 -120 -54 -193 -85 -639 -317 -855 -446 -154 -92 -406 -251
-415 -264 -3 -3 -18 -14 -35 -23 -16 -9 -61 -39 -100 -67 -38 -27 -81 -58 -95
-67 -47 -31 -224 -165 -345 -261 -426 -336 -811 -702 -1208 -1151 -56 -63
-269 -322 -339 -413 -135 -174 -444 -620 -504 -726 -30 -54 -39 -68 -51 -82
-16 -20 -191 -327 -253 -444 -89 -166 -270 -536 -270 -550 0 -2 -13 -32 -29
-67 -16 -35 -50 -115 -76 -178 -25 -63 -52 -128 -60 -145 -28 -64 -146 -398
-199 -565 -51 -161 -157 -540 -170 -607 -3 -15 -14 -66 -25 -113 -11 -47 -22
-96 -25 -110 -2 -14 -9 -45 -15 -70 -5 -25 -13 -61 -16 -80 -3 -19 -8 -42 -10
-50 -2 -8 -6 -31 -9 -50 -3 -19 -12 -73 -20 -120 -8 -47 -17 -105 -21 -130 -3
-25 -8 -56 -10 -70 -7 -39 -13 -80 -20 -139 -4 -30 -8 -61 -10 -70 -1 -9 -6
-47 -10 -86 -4 -38 -8 -82 -10 -98 -7 -58 -19 -204 -32 -397 -16 -233 -8
-1014 12 -1205 2 -22 6 -76 10 -120 3 -44 8 -98 10 -120 3 -22 7 -65 10 -95 4
-30 8 -66 10 -80 2 -14 6 -47 10 -75 13 -101 15 -119 20 -144 2 -14 13 -83 24
-154 42 -258 178 -868 220 -987 5 -14 19 -59 31 -100 34 -116 119 -376 152
-465 74 -199 105 -280 163 -420 35 -82 76 -179 93 -215 16 -36 39 -87 52 -115
30 -67 210 -427 219 -440 5 -5 29 -50 55 -98 60 -113 164 -290 250 -429 110
-176 447 -664 476 -688 3 -3 28 -34 55 -70 68 -90 57 -75 277 -340 224 -268
615 -658 983 -979 73 -64 251 -207 380 -305 77 -58 145 -110 150 -114 96 -74
487 -336 635 -424 401 -241 848 -466 1255 -633 559 -229 1238 -427 1785 -521
19 -3 60 -10 90 -15 87 -16 161 -27 210 -34 25 -3 56 -8 70 -10 22 -3 74 -10
165 -21 17 -2 53 -6 80 -9 28 -3 68 -7 90 -10 22 -2 74 -7 115 -10 41 -3 93
-7 115 -10 226 -26 1186 -26 1346 0 13 2 65 6 116 10 50 3 102 8 115 10 13 2
50 7 83 10 93 9 148 16 175 20 14 2 79 12 145 21 149 21 148 20 215 33 30 6
71 13 90 16 91 14 401 81 545 117 1355 337 2600 978 3665 1887 74 63 140 120
146 126 6 5 56 52 111 102 182 169 427 417 593 603 41 46 80 88 85 94 6 6 65
76 131 156 464 557 850 1154 1167 1803 48 97 87 179 87 181 0 2 20 47 45 100
25 53 45 99 45 102 0 3 9 26 21 52 154 343 398 1079 454 1370 1 9 8 37 15 62
7 25 14 54 15 65 2 11 8 38 13 60 6 22 13 51 16 65 2 14 14 75 26 135 22 112
36 193 46 255 2 19 9 58 14 85 5 28 11 70 15 95 3 25 7 54 9 65 2 11 7 45 10
75 4 30 8 69 10 85 6 42 17 151 21 194 2 20 6 68 10 106 12 135 14 171 22 335
13 299 7 938 -11 1090 -3 19 -8 75 -11 123 -4 49 -8 98 -10 110 -2 12 -6 54
-10 92 -3 39 -8 81 -10 95 -2 14 -7 48 -10 75 -7 60 -17 132 -31 225 -6 39
-41 248 -50 295 -3 17 -25 122 -49 235 -156 723 -385 1381 -715 2055 -87 177
-258 494 -310 575 -5 8 -19 31 -30 50 -11 19 -30 51 -42 72 -13 20 -36 58 -52
85 -136 226 -462 682 -660 923 -21 25 -43 52 -50 60 -14 18 -129 152 -171 200
-155 178 -459 489 -646 661 -51 46 -97 89 -103 94 -135 126 -474 400 -685 555
-258 189 -665 452 -901 582 -502 277 -979 492 -1462 657 -162 56 -363 119
-448 143 -19 5 -74 20 -121 34 -47 13 -94 26 -105 29 -10 2 -84 19 -164 39
-147 35 -476 104 -540 112 -19 2 -46 7 -60 10 -14 2 -41 7 -60 9 -19 3 -42 7
-50 10 -8 2 -44 7 -80 10 -36 4 -67 8 -70 10 -3 2 -34 6 -70 10 -36 4 -74 9
-85 11 -11 2 -45 6 -75 9 -30 3 -75 7 -100 10 -90 9 -147 14 -245 20 -55 4
-120 9 -145 11 -52 6 -857 14 -862 9z"/>
</g>
</svg>
